<svg xmlns="http://www.w3.org/2000/svg" viewBox="0 0 1280 720" width="1280" height="720">
	<style>
		tspan { white-space:pre }
		.shp0 { fill: #0d3f9b } 
	</style>
	<path id="Shape 1" fill-rule="evenodd" class="shp0" d="M348 308.22C348 266.48 396.47 250.08 430 240.22C447.7 235.01 469.69 238.22 488 238.22C501.78 238.22 522.72 235.79 536 240.22C551.04 245.23 553.99 256.01 572 252.22C586.72 249.12 625.94 234.9 640 230.22C640.6 230.02 639.4 224.42 640 224.22C655.97 218.9 664.19 217.25 680 208.22C698.08 197.89 718.36 178.92 740 176.22C760.97 173.6 774.33 182.5 790 196.22C794.63 200.27 796.5 207.47 802 210.22C809.35 213.89 833.71 210.22 840 210.22C869.5 210.22 902.29 210.79 928 226.22C943.82 235.71 954.56 274.3 952 292.22C951.02 299.11 946.14 302.8 948 310.22C949.9 317.8 990.62 340.76 996 344.22C1016.21 357.21 1055.49 383.52 1064 406.22C1069.05 419.68 1068 436.17 1068 450.22C1068 453.59 1068.15 486.07 1068 486.22C1064.81 489.41 1020.65 487.57 1014 494.22C1012.59 495.63 1014.74 498.36 1014 500.22C1009.68 511.03 1001.11 523.47 994 532.22C966.49 566.08 939.96 593.78 900 612.22C850.31 635.15 817.69 594.15 770 596.22C705.87 599.01 645.97 618.13 584 632.22C557.82 638.17 506.41 648.12 480 638.22C469.93 634.44 460.44 628.88 452 622.22C446.03 617.51 442.56 610.3 438 604.22C436.74 602.53 437.96 599 436 598.22C394.66 581.68 334.37 594.34 300 566.22C292.08 559.74 270.01 534.24 266 524.22C264.14 519.58 266.69 511.3 264 506.22C258.27 495.4 252.79 484.4 246 474.22C235.89 459.05 217.7 442.96 220 422.22C222.32 401.31 233.02 404.18 238 394.22C240.09 390.04 237.09 384.8 238 380.22C239.37 373.32 240.88 366.3 244 360C244.59 358.8 247.43 361.21 248 360C256.85 341.17 260.45 309.25 280 296.22C283.45 293.92 293.85 296.22 298 296.22C316.81 296.22 336.41 298.22 354 298.22" />
</svg>